<svg version="1.1" xmlns="http://www.w3.org/2000/svg" width="1024" height="1024" viewBox="0 0 1024 1024">
    <path d="M213.8 1024c-47.252 0-82.691-11.813-110.254-35.439-3.937-3.937-11.813-11.813-15.751-15.751-39.377-39.377-90.566-86.628-86.628-153.568 0-43.314 27.563-86.628 82.691-129.942 141.755-114.191 208.694-70.877 275.634 0l3.937 3.937c31.501-3.937 118.129-66.94 196.882-137.817 145.693-145.693 137.817-189.006 137.817-189.006l-7.875-7.875c-70.877-66.94-114.191-133.88 0-275.634 43.314-51.189 86.628-78.753 129.942-82.691 63.002-3.937 114.191 47.252 149.631 86.628 7.875 7.875 11.813 11.813 15.751 19.688 47.252 47.252 51.189 141.755 3.937 259.884-47.252 122.066-133.88 252.009-252.009 370.138s-248.071 208.694-370.138 252.009c-59.065 23.626-110.254 35.439-153.568 35.439zM229.551 697.176c-23.626 0-51.189 15.751-98.441 55.126-27.563 15.751-55.126 43.314-55.126 70.877 0 31.501 31.501 63.002 63.002 90.566 7.875 7.875 11.813 11.813 19.688 19.688 19.688 19.688 82.691 23.626 177.194-11.813 110.254-43.314 232.32-126.005 342.574-236.259s192.945-232.32 236.259-342.574c35.439-94.503 31.501-157.505 11.813-177.194-7.875-7.875-11.813-11.813-19.688-19.688-27.563-35.439-59.065-66.94-90.566-66.94-27.563 0-55.126 27.563-70.877 51.189-78.753 98.441-59.065 118.129-7.875 169.319l11.813 11.813c70.877 70.877-39.377 196.882-141.755 299.26-232.32 208.694-283.51 157.505-299.26 141.755l-11.813-11.813c-23.626-27.563-43.314-43.314-66.94-43.314z" />
</svg>
